            <svg height="50px" width="50px" version="1.1" id="Layer_1" xmlns="http://www.w3.org/2000/svg" xmlns:xlink="http://www.w3.org/1999/xlink" viewBox="0 0 291.31 291.31" xml:space="preserve" fill="#000000"><g id="SVGRepo_bgCarrier" stroke-width="0"></g><g id="SVGRepo_tracerCarrier" stroke-linecap="round" stroke-linejoin="round"></g><g id="SVGRepo_iconCarrier"> <g> <path style="fill:#D99666;" d="M9.099,0h273.112L254.9,263.999L154.759,291.31h-18.207L36.41,263.999L9.099,0z"></path> <path style="fill:#F4B459;" d="M145.655,27.302h100.141l-18.207,209.386l-81.933,27.311 C145.655,263.999,145.655,27.302,145.655,27.302z"></path> <polygon style="fill:#FFFFFF;" points="218.649,81.806 221.516,54.613 63.43,54.613 66.616,81.806 69.53,118.403 69.493,118.403 72.252,145.641 178.228,145.641 174.587,188.975 145.655,198.115 145.655,197.833 107.183,187.664 104.825,163.785 72.698,163.785 77.013,207.647 77.013,209.44 145.655,227.584 203.218,209.44 203.919,209.44 203.937,209.194 204.064,209.176 204.064,207.738 209.272,145.641 209.39,145.641 212.158,118.403 102.94,118.403 100.027,81.806 "></polygon> <g> <polygon style="fill:#E5E5E5;" points="145.655,54.613 63.43,54.613 66.616,81.806 69.53,118.403 69.493,118.403 72.252,145.641 145.655,145.641 145.655,118.403 102.94,118.403 100.027,81.806 145.655,81.806 "></polygon> <polygon style="fill:#E5E5E5;" points="145.655,197.833 107.183,187.664 104.825,163.785 72.698,163.785 77.013,207.647 77.013,209.44 145.655,227.584 145.655,198.115 "></polygon> </g></g> </g></svg>
